# xmcd
# 
# Track frame offsets:
#     150
#     19255
#     36584
#     50490
#     66425
#     87207
#     105970
#     121149
#     141726
#     159792
#     174260
#     193785
#     210100
#     223791
#     242142
#     260032
#     277525
#     292465
#     309925
#     330817
# 
# Disc length: 4651
# 
# Revision: 0
# Processed by: cddbd v1.5.2PL0 Copyright (c) Steve Scherf et al.
# Submitted via: fre:ac v1.0.31
# 
DISCID=21122914
DTITLE=Various Artist - Kaikkien aikojen suomirock klassikot
DYEAR=2010
DGENRE=Rock
TTITLE0=CMX and Kotiteollisuus Feat. 51 Koodia - Vapaus Johtaa Kansaa
TTITLE1=Happoradio - Che Guevara
TTITLE2=Hanoi Rocks - A Day Late, A Dollar Short
TTITLE3=Scandinavian Music Group - Hölmö Rakkaus
TTITLE4=Suburban Tribe - Frozen Ashes
TTITLE5=Irina - Pokka
TTITLE6=Lauri Tähkä and Elonkerjuu - Pauhaava Sydän
TTITLE7=Nightwish - Nemo
TTITLE8=Tehosekoitin - Hetken Tie On Kevyt
TTITLE9=Apulanta - Anna Mulle Piiskaa
TTITLE10=Zen Café - Piha Ilman Sadettajaa
TTITLE11=HIM (2) - Join Me
TTITLE12=Jonna Tervomaa - Suljettu Sydän
TTITLE13=Neljä Baritonia - Pop-Musiikkia
TTITLE14=22-Pistepirkko - Birdy
TTITLE15=Olavi Uusivirta - On Niin Helppoo Olla Onnellinen
TTITLE16=PMMP - Oo Siellä Jossain Mun
TTITLE17=The Rasmus - F-F-F-Falling
TTITLE18=Timo Rautiainen and Trio Niskalaukaus - Surupuku
TTITLE19=Von Hertzen Brothers - Kiss A Wish (Single Version)
EXTD=Kokoelma
EXTT0=Written-By – A. W. Yrjänä
EXTT1=
EXTT2=
EXTT3=
EXTT4=
EXTT5=
EXTT6=
EXTT7=
EXTT8=
EXTT9=
EXTT10=
EXTT11=
EXTT12=
EXTT13=
EXTT14=
EXTT15=
EXTT16=
EXTT17=
EXTT18=
EXTT19=
PLAYORDER=
